<svg width="162" height="63" viewBox="0 0 162 63" fill="none" xmlns="http://www.w3.org/2000/svg">
<path d="M62.0595 20.7812V23.6794H57.8262V38.6553H54.6512V23.6794H50.418V20.7812H62.0595Z" fill="#FF5757"/>
<path d="M67.565 26.6655C67.9733 25.9226 68.5057 25.3378 69.159 24.9149C69.8188 24.4846 70.5766 24.2676 71.4324 24.2676V28.0189H70.5831C69.5901 28.0189 68.8356 28.2837 68.3228 28.8133C67.8165 29.3429 67.565 30.2661 67.565 31.579V38.6551H64.377V24.4588H67.565V26.6655Z" fill="#FF5757"/>
<path d="M75.1864 22.7816C74.6181 22.7816 74.1477 22.583 73.7753 22.1785C73.4095 21.7776 73.2266 21.2774 73.2266 20.6779C73.2266 20.0821 73.4095 19.5819 73.7753 19.1774C74.1477 18.7765 74.6181 18.5742 75.1864 18.5742C75.7417 18.5742 76.2055 18.7765 76.5714 19.1774C76.9437 19.5819 77.1332 20.0821 77.1332 20.6779C77.1332 21.2774 76.9437 21.7776 76.5714 22.1785C76.2055 22.583 75.7417 22.7816 75.1864 22.7816ZM76.7543 24.4587V38.655H73.5663V24.4587H76.7543Z" fill="#FF5757"/>
<path d="M83.0767 26.5185C83.485 25.8712 84.0468 25.3343 84.7622 24.9003C85.484 24.4589 86.3072 24.2383 87.2316 24.2383C88.3095 24.2383 89.2861 24.5399 90.1583 25.1357C91.0271 25.7351 91.7164 26.5847 92.2226 27.6807C92.7355 28.7804 92.9935 30.0566 92.9935 31.5056C92.9935 32.9583 92.7355 34.2419 92.2226 35.3599C91.7164 36.478 91.0271 37.3459 90.1583 37.9638C89.2861 38.5817 88.3095 38.8906 87.2316 38.8906C86.3072 38.8906 85.4938 38.6773 84.7883 38.258C84.0827 37.8277 83.5111 37.2834 83.0767 36.6251V45.4224H79.8887V24.4589H83.0767V26.5185ZM89.7402 31.5056C89.7402 30.6524 89.5834 29.9168 89.2698 29.2989C88.9628 28.6737 88.5545 28.1956 88.0416 27.8719C87.5353 27.5483 86.9866 27.3865 86.3954 27.3865C85.8205 27.3865 85.275 27.5557 84.7622 27.8867C84.2559 28.2213 83.8476 28.7068 83.534 29.3431C83.2269 29.972 83.0767 30.7112 83.0767 31.5644C83.0767 32.4177 83.2269 33.1643 83.534 33.8005C83.8476 34.4295 84.2559 34.9112 84.7622 35.2422C85.275 35.5769 85.8205 35.7424 86.3954 35.7424C86.9866 35.7424 87.5353 35.5732 88.0416 35.2275C88.5545 34.8855 88.9628 34.4 89.2698 33.7711C89.5834 33.1349 89.7402 32.3809 89.7402 31.5056Z" fill="#FF5757"/>
<path d="M94.5381 29.6963C94.5381 27.9309 94.8909 26.3568 95.5964 24.974C96.3019 23.5838 97.2623 22.4988 98.4839 21.7228C99.7023 20.9394 101.071 20.5459 102.587 20.5459C104.363 20.5459 105.918 21.0608 107.251 22.0906C108.584 23.113 109.515 24.529 110.047 26.3421H106.389C106.023 25.4889 105.507 24.8489 104.847 24.4149C104.194 23.9846 103.436 23.7676 102.573 23.7676C101.639 23.7676 100.813 24.0141 100.091 24.5032C99.3756 24.996 98.8171 25.6875 98.4186 26.5775C98.0168 27.4602 97.8176 28.501 97.8176 29.6963C97.8176 30.8731 98.0168 31.914 98.4186 32.815C98.8171 33.7087 99.3756 34.4002 100.091 34.8893C100.813 35.3711 101.639 35.6101 102.573 35.6101C103.436 35.6101 104.194 35.3968 104.847 34.9629C105.507 34.5215 106.023 33.8742 106.389 33.021H110.047C109.515 34.8452 108.587 36.2685 107.264 37.2872C105.938 38.2986 104.38 38.8025 102.587 38.8025C101.071 38.8025 99.7023 38.4163 98.4839 37.6403C97.2623 36.868 96.3019 35.7867 95.5964 34.4038C94.8909 33.021 94.5381 31.4542 94.5381 29.6963Z" fill="#FF5757"/>
<path d="M118.369 38.8906C117.157 38.8906 116.063 38.589 115.089 37.9785C114.122 37.3717 113.358 36.5148 112.803 35.4041C112.254 34.2971 111.979 33.0172 111.979 31.5644C111.979 30.1154 112.26 28.8355 112.829 27.7248C113.404 26.6068 114.181 25.7499 115.168 25.1504C116.151 24.5435 117.248 24.2383 118.46 24.2383C119.678 24.2383 120.779 24.5435 121.766 25.1504C122.749 25.7499 123.523 26.6068 124.091 27.7248C124.666 28.8355 124.954 30.1154 124.954 31.5644C124.954 33.0172 124.66 34.2971 124.078 35.4041C123.494 36.5148 122.7 37.3717 121.7 37.9785C120.707 38.589 119.597 38.8906 118.369 38.8906ZM118.369 35.7571C118.95 35.7571 119.496 35.6027 120.002 35.2864C120.505 34.9738 120.91 34.503 121.217 33.8741C121.521 33.2378 121.674 32.4692 121.674 31.5644C121.674 30.211 121.354 29.1739 120.72 28.4457C120.093 27.7212 119.326 27.3571 118.421 27.3571C117.506 27.3571 116.739 27.7212 116.121 28.4457C115.51 29.1739 115.207 30.211 115.207 31.5644C115.207 32.9105 115.507 33.944 116.108 34.6685C116.709 35.3967 117.461 35.7571 118.369 35.7571Z" fill="#FF5757"/>
<path d="M132.54 35.3453L135.728 24.459H139.112L134.46 38.6553H130.593L125.941 24.459H129.365L132.54 35.3453Z" fill="#FF5757"/>
<path d="M152.631 31.2555C152.631 31.7667 152.598 32.2265 152.539 32.6384H143.328C143.397 33.6608 143.71 34.4626 144.269 35.051C144.834 35.6321 145.526 35.919 146.346 35.919C147.529 35.919 148.372 35.3452 148.868 34.1977H152.304C151.945 35.5622 151.249 36.6839 150.214 37.5666C149.185 38.4493 147.917 38.8906 146.412 38.8906C145.2 38.8906 144.112 38.589 143.145 37.9785C142.185 37.3717 141.437 36.5148 140.898 35.4041C140.356 34.2971 140.088 33.0172 140.088 31.5644C140.088 30.0933 140.352 28.8061 140.885 27.6954C141.414 26.5884 142.159 25.7351 143.119 25.1357C144.076 24.5399 145.174 24.2383 146.412 24.2383C147.614 24.2383 148.688 24.5288 149.639 25.1062C150.586 25.6873 151.324 26.5112 151.847 27.5777C152.37 28.648 152.631 29.8727 152.631 31.2555ZM149.325 30.2257C149.316 29.3063 149.018 28.5707 148.437 28.0191C147.862 27.46 147.156 27.1805 146.32 27.1805C145.536 27.1805 144.873 27.4527 144.334 27.9896C143.792 28.5303 143.462 29.2769 143.341 30.2257H149.325Z" fill="#FF5757"/>
<path d="M158.132 26.6655C158.541 25.9226 159.073 25.3378 159.726 24.9149C160.386 24.4846 161.144 24.2676 162 24.2676V28.0189H161.151C160.158 28.0189 159.403 28.2837 158.89 28.8133C158.384 29.3429 158.132 30.2661 158.132 31.579V38.6551H154.944V24.4588H158.132V26.6655Z" fill="#FF5757"/>
<mask id="mask0_3429_2151" style="mask-type:luminance" maskUnits="userSpaceOnUse" x="7" y="15" width="31" height="48">
<path d="M7.91797 15.7041H37.6608V62.7782H7.91797V15.7041Z" fill="white"/>
</mask>
<g mask="url(#mask0_3429_2151)">
<path d="M22.7844 15.7041C14.5771 15.7041 7.91895 23.0807 7.91895 32.1735C7.91895 44.5272 22.7844 62.7634 22.7844 62.7634C22.7844 62.7634 37.6514 44.5272 37.6514 32.1735C37.6514 23.0807 30.9932 15.7041 22.7844 15.7041ZM22.7844 38.0561C19.8544 38.0561 17.4762 35.4213 17.4762 32.1735C17.4762 28.9273 19.8544 26.2909 22.7844 26.2909C25.7159 26.2909 28.0942 28.9273 28.0942 32.1735C28.0942 35.4213 25.7159 38.0561 22.7844 38.0561Z" fill="#FF914D"/>
</g>
<mask id="mask1_3429_2151" style="mask-type:luminance" maskUnits="userSpaceOnUse" x="0" y="0" width="43" height="46">
<path d="M0 0H42.773V45.9904H0V0Z" fill="white"/>
</mask>
<g mask="url(#mask1_3429_2151)">
<path d="M40.8344 20.4907C39.9212 19.7339 36.5294 16.0219 31.705 20.2962C30.6369 21.156 30.0969 21.715 30.0969 21.715C30.0969 21.715 22.2894 5.8814 -0.00585938 0.0576172C-0.00585938 0.0576172 26.4779 11.8327 28.0241 45.7407C35.6501 35.6737 36.7713 23.3903 39.8548 22.8428C41.6857 22.5175 42.6948 23.66 42.6948 23.66C42.6948 23.66 42.5546 21.9144 40.8344 20.4907Z" fill="#FF5757"/>
</g>
<path d="M26.9335 49.1912L26.7801 45.8094C26.6502 42.9882 26.3434 40.2537 25.8624 37.6074L12.1875 45.7408C12.1875 45.7408 18.9711 54.5296 26.9335 49.1912Z" fill="#FF5757"/>
<path d="M12.1875 45.7402L22.6594 62.7212L26.9335 49.1907C18.9711 54.529 12.1875 45.7402 12.1875 45.7402Z" fill="#FF3131"/>
</svg>
